<svg width="14" height="14" viewBox="0 0 14 14" fill="none" xmlns="http://www.w3.org/2000/svg">
<path d="M6.22222 6.22222H7.77778V10.8889H6.22222V6.22222Z" fill="#2770EF"/>
<path d="M6.22222 3.11111H7.77778V4.66667H6.22222V3.11111Z" fill="#2770EF"/>
<path fill-rule="evenodd" clip-rule="evenodd" d="M7 14C10.866 14 14 10.866 14 7C14 3.13401 10.866 0 7 0C3.13401 0 0 3.13401 0 7C0 10.866 3.13401 14 7 14ZM7 12.4444C10.0069 12.4444 12.4444 10.0069 12.4444 7C12.4444 3.99312 10.0069 1.55556 7 1.55556C3.99312 1.55556 1.55556 3.99312 1.55556 7C1.55556 10.0069 3.99312 12.4444 7 12.4444Z" fill="#2770EF"/>
</svg>
